<svg width="69" height="31" viewBox="0 0 69 31" fill="none" xmlns="http://www.w3.org/2000/svg">
<path d="M52.2755 2.70932C52.6653 2.31766 53.2989 2.31646 53.6903 2.70662L65.8106 14.7905C66.2025 15.1813 66.2025 15.816 65.8106 16.2068L53.6903 28.2932C53.2989 28.6835 52.6653 28.6823 52.2754 28.2906L49.7304 25.7338C49.3312 25.3327 49.344 24.6806 49.7587 24.2955L55.8887 18.6033C55.9597 18.5374 56 18.445 56 18.3482V18.3482C56 18.1559 55.8441 18 55.6518 18H3C2.44771 18 2 17.5523 2 17V14C2 13.4477 2.44772 13 3 13H55.6518C55.8441 13 56 12.8441 56 12.6518V12.6518C56 12.555 55.9597 12.4626 55.8887 12.3967L49.7587 6.70449C49.344 6.31943 49.3312 5.66729 49.7304 5.26622L52.2755 2.70932Z" stroke="#273437" stroke-width="3"/>
</svg>
