<svg width="49" height="31" viewBox="0 0 49 31" fill="none" xmlns="http://www.w3.org/2000/svg">
<path d="M26.41 14.8463L14.4297 2.72004C14.0382 2.32379 13.3984 2.32379 13.007 2.72004L10.6944 5.06082C10.3095 5.45034 10.3095 6.07693 10.6944 6.46645L18.9733 14.8463C19.3582 15.2358 19.3582 15.8624 18.9733 16.2519L10.6944 24.6317C10.3095 25.0212 10.3095 25.6478 10.6944 26.0373L13.007 28.3781C13.3984 28.7744 14.0382 28.7744 14.4297 28.3781L26.41 16.2519C26.7949 15.8624 26.7949 15.2358 26.41 14.8463Z" stroke="#273437" stroke-width="3"/>
<path d="M45.9964 15.0972L34.0161 2.97102C33.6247 2.57477 32.9849 2.57477 32.5934 2.97102L30.2808 5.3118C29.8959 5.70132 29.8959 6.3279 30.2808 6.71742L38.5598 15.0972C38.9446 15.4868 38.9446 16.1133 38.5598 16.5029L30.2808 24.8827C29.8959 25.2722 29.8959 25.8988 30.2808 26.2883L32.5934 28.6291C32.9849 29.0253 33.6247 29.0253 34.0161 28.6291L45.9964 16.5029C46.3813 16.1133 46.3813 15.4868 45.9964 15.0972Z" stroke="#273437" stroke-width="3"/>
</svg>
