<svg width="31" height="41" viewBox="0 0 31 41" fill="none" xmlns="http://www.w3.org/2000/svg">
<g clip-path="url(#clip0)">
<path d="M15.4374 22.6249L26.7558 11.2299C27.1432 10.8399 27.1432 10.2104 26.7558 9.82048L24.6298 7.68004C24.2387 7.28633 23.6019 7.28633 23.2108 7.68003L15.4374 15.506C15.0463 15.8997 14.4095 15.8997 14.0184 15.506L6.24499 7.68004C5.85393 7.28633 5.21708 7.28633 4.82602 7.68004L2.69995 9.82048C2.3126 10.2104 2.3126 10.8399 2.69995 11.2299L14.0184 22.6249C14.4095 23.0186 15.0463 23.0186 15.4374 22.6249Z" stroke="#FBE880" stroke-width="3"/>
<path d="M15.4374 38.9984L26.7558 27.6034C27.1432 27.2134 27.1432 26.5839 26.7558 26.1939L24.6298 24.0535C24.2387 23.6598 23.6019 23.6598 23.2108 24.0535L15.4374 31.8795C15.0463 32.2732 14.4095 32.2732 14.0184 31.8795L6.24499 24.0535C5.85393 23.6598 5.21708 23.6598 4.82602 24.0535L2.69995 26.1939C2.3126 26.5839 2.3126 27.2134 2.69995 27.6034L14.0184 38.9984C14.4095 39.3921 15.0463 39.3921 15.4374 38.9984Z" stroke="#FBE880" stroke-width="3"/>
</g>
<defs>
<clipPath id="clip0">
<rect x="31" y="0.302734" width="40.2052" height="31" transform="rotate(90 31 0.302734)" fill="white"/>
</clipPath>
</defs>
</svg>
