<svg width="70" height="70" viewBox="0 0 70 70" fill="none" xmlns="http://www.w3.org/2000/svg">
<path d="M66.4451 3.56642L64.6148 24.6148L43.5664 26.4451L42.5 25.3787L42.5 2.50001L65.3787 2.50001L66.4451 3.56642Z" fill="#273437" stroke="#273437" stroke-width="3"/>
<rect x="66.5" y="26.5" width="22" height="22" transform="rotate(180 66.5 26.5)" fill="#FBE880" stroke="#273437" stroke-width="3"/>
<path fill-rule="evenodd" clip-rule="evenodd" d="M35 3L33 1V3.5L35 3ZM1 33.5008C0.999998 15.7181 15.2813 1.27099 33 1.00375L33 34L65.9962 34C65.7295 51.7196 51.2826 66.0017 33.5 66.0017C15.5507 66.0017 1 51.4506 1 33.5008Z" fill="#273437"/>
<mask id="path-4-inside-1" fill="white">
<path fill-rule="evenodd" clip-rule="evenodd" d="M35 3.00375C17.2813 3.27098 3 17.7181 3 35.5008C3 53.4506 17.5507 68.0017 35.5 68.0017C53.4493 68.0017 68 53.4506 68 35.5008C68 35.3336 67.9987 35.1666 67.9962 35L35 35L35 3.00375Z"/>
</mask>
<path fill-rule="evenodd" clip-rule="evenodd" d="M35 3.00375C17.2813 3.27098 3 17.7181 3 35.5008C3 53.4506 17.5507 68.0017 35.5 68.0017C53.4493 68.0017 68 53.4506 68 35.5008C68 35.3336 67.9987 35.1666 67.9962 35L35 35L35 3.00375Z" fill="#F8FBFB"/>
<path d="M35 3.00375L38 3.00375L38 -0.041837L34.9548 0.00409224L35 3.00375ZM67.9962 35L70.9959 34.9547L70.9512 32L67.9962 32L67.9962 35ZM35 35L32 35L32 38L35 38L35 35ZM6 35.5008C6 19.3597 18.9632 6.24595 35.0452 6.00341L34.9548 0.00409224C15.5994 0.296002 -4.53945e-06 16.0765 -2.84132e-06 35.5008L6 35.5008ZM35.5 65.0017C19.2077 65.0017 6 51.7938 6 35.5008L-2.84132e-06 35.5008C-1.12726e-06 55.1074 15.8938 71.0017 35.5 71.0017L35.5 65.0017ZM65 35.5008C65 51.7938 51.7923 65.0017 35.5 65.0017L35.5 71.0017C55.1062 71.0017 71 55.1074 71 35.5008L65 35.5008ZM64.9966 35.0453C64.9988 35.1969 65 35.3487 65 35.5008L71 35.5008C71 35.3185 70.9986 35.1364 70.9959 34.9547L64.9966 35.0453ZM67.9962 32L35 32L35 38L67.9962 38L67.9962 32ZM38 35L38 3.00375L32 3.00375L32 35L38 35Z" fill="#273437" mask="url(#path-4-inside-1)"/>
</svg>
