<svg width="70" height="70" viewBox="0 0 70 70" fill="none" xmlns="http://www.w3.org/2000/svg">
<mask id="path-1-inside-1" fill="white">
<path d="M61.75 6L63.7143 8L61.75 62L8.71436 64L6.75001 62L6.75 6L61.75 6Z"/>
</mask>
<path d="M61.75 6L63.7143 8L61.75 62L8.71436 64L6.75001 62L6.75 6L61.75 6Z" fill="#273437"/>
<path d="M61.75 6L63.8904 3.89786L63.0085 3H61.75V6ZM61.75 62L61.8631 64.9979L64.6468 64.8929L64.748 62.1091L61.75 62ZM6.75001 62H3.75001L3.75001 63.2269L4.6097 64.1022L6.75001 62ZM6.75 6L6.75 3L3.75 3L3.75 6L6.75 6ZM8.71436 64L6.57405 66.1022L7.50285 67.0478L8.82741 66.9979L8.71436 64ZM63.7143 8L66.7123 8.10906L66.7593 6.81891L65.8547 5.89786L63.7143 8ZM9.75001 62L9.75 6L3.75 6L3.75001 62H9.75001ZM6.75 9L61.75 9V3L6.75 3L6.75 9ZM61.637 59.0021L8.60131 61.0021L8.82741 66.9979L61.8631 64.9979L61.637 59.0021ZM10.8547 61.8978L8.89033 59.8978L4.6097 64.1022L6.57405 66.1022L10.8547 61.8978ZM59.6097 8.10214L61.574 10.1021L65.8547 5.89786L63.8904 3.89786L59.6097 8.10214ZM60.7163 7.89094L58.752 61.8909L64.748 62.1091L66.7123 8.10906L60.7163 7.89094Z" fill="#273437" mask="url(#path-1-inside-1)"/>
<mask id="path-3-inside-2" fill="white">
<path d="M63.7143 7.93994L63.7144 64L8.71437 64L8.71436 7.93995L63.7143 7.93994Z"/>
</mask>
<path d="M63.7143 7.93994L63.7144 64L8.71437 64L8.71436 7.93995L63.7143 7.93994Z" fill="#F8FBFB"/>
<path d="M63.7143 7.93994L66.7143 7.93994V4.93994L63.7143 4.93994V7.93994ZM63.7144 64V67H66.7144V64H63.7144ZM8.71437 64H5.71437L5.71437 67H8.71437L8.71437 64ZM8.71436 7.93995L8.71436 4.93995L5.71435 4.93995L5.71436 7.93995L8.71436 7.93995ZM60.7143 7.93994L60.7144 64H66.7144L66.7143 7.93994L60.7143 7.93994ZM63.7144 61L8.71437 61L8.71437 67L63.7144 67V61ZM11.7144 64L11.7144 7.93995L5.71436 7.93995L5.71437 64H11.7144ZM8.71436 10.9399L63.7143 10.9399V4.93994L8.71436 4.93995L8.71436 10.9399Z" fill="#273437" mask="url(#path-3-inside-2)"/>
<path d="M2.35721 1.5L26.7458 1.5L27.7884 2.56152L25.984 24.6083L3.39962 26.4479L2.35722 25.3866L2.35721 1.5Z" fill="#273437" stroke="#273437" stroke-width="3"/>
<rect x="27.8394" y="3.5" width="23" height="23.5179" transform="rotate(90 27.8394 3.5)" fill="#FBE880" stroke="#273437" stroke-width="3"/>
</svg>
