<svg width="120" height="10" viewBox="0 0 120 10" fill="none" xmlns="http://www.w3.org/2000/svg">
<g clip-path="url(#clip0)">
<path d="M12.6156 6.61783C12.6094 6.17689 12.7133 5.74146 12.9179 5.3517C13.1321 4.95464 13.4395 4.61654 13.8132 4.36695C14.2711 4.06493 14.7792 3.8485 15.3132 3.72803C15.997 3.5661 16.6979 3.48932 17.4003 3.49941C18.0246 3.50262 18.6481 3.54767 19.2665 3.63424C19.9463 3.72561 20.62 3.85871 21.2838 4.03283C21.2554 3.78439 21.1588 3.54889 21.0047 3.35287C20.8375 3.08421 20.6156 2.85445 20.3536 2.67879C20.0451 2.47784 19.705 2.33117 19.3478 2.24503C18.9108 2.13443 18.4613 2.08123 18.0107 2.08675C17.7135 2.08831 17.4166 2.10594 17.1212 2.13952C16.7957 2.16883 16.4584 2.22159 16.1096 2.28606C15.7647 2.35078 15.4232 2.43294 15.0864 2.53224C14.7612 2.62196 14.4441 2.73963 14.1388 2.88395L13.4121 0.890985C13.7725 0.762028 14.1621 0.644785 14.5748 0.533414C14.9876 0.422042 15.412 0.328267 15.8422 0.252065C16.2724 0.175864 16.7084 0.111381 17.1445 0.0644876C17.5805 0.0175943 17.9933 0 18.4002 0C20.1908 0 21.5222 0.461127 22.3942 1.38336C23.2663 2.30951 23.7023 3.55217 23.7023 5.45721V9.83587H17.1445C16.4793 9.84686 15.816 9.76401 15.1736 9.58969C14.6655 9.45181 14.1868 9.22136 13.7609 8.90974C13.3983 8.64302 13.1034 8.29351 12.9005 7.88981C12.708 7.49416 12.6105 7.05846 12.6156 6.61783ZM18.2956 7.71395H21.2954V6.11373C20.0978 5.721 14.7492 5.00001 14.7492 6.51232C14.7492 7.7081 16.9235 7.71395 18.2956 7.71395Z" fill="#273437"/>
<path d="M34.0972 0.164114V7.70222H30.9229C30.1248 7.71377 29.3476 7.4443 28.7253 6.94021C28.4865 6.73541 28.3126 6.46428 28.2254 6.1606C28.127 5.66463 28.0783 5.15994 28.08 4.65415V0.158264H25.6906V5.21688C25.6779 5.84732 25.7703 6.47542 25.9639 7.07502C26.1319 7.63636 26.4309 8.14892 26.8359 8.56976C27.2653 9.0009 27.7919 9.3207 28.3707 9.50176C29.0978 9.73492 29.8577 9.84774 30.6206 9.83586H36.4982V0.164114H34.0972Z" fill="#273437"/>
<path d="M46.0384 0.169983H43.7246H41.3235H39.0097H38.3179V1.9871H39.0097H41.3235V9.83001H43.7246V1.9871H46.0384H46.7303V0.169983H46.0384Z" fill="#273437"/>
<path d="M47.9279 5C47.9261 4.32842 48.069 3.66447 48.3465 3.05394C48.6291 2.44461 49.0374 1.90304 49.5441 1.46542C50.0955 0.992193 50.7306 0.628259 51.4161 0.392743C53.0223 -0.131077 54.7515 -0.131077 56.3577 0.392743C57.0445 0.628999 57.6815 0.99282 58.2355 1.46542C58.7387 1.90497 59.1447 2.44617 59.4273 3.05394C59.7037 3.66488 59.8467 4.32852 59.8467 5C59.8467 5.67149 59.7037 6.33515 59.4273 6.94608C59.1462 7.55477 58.74 8.09624 58.2355 8.53459C57.6815 9.00718 57.0445 9.37103 56.3577 9.60728C54.7515 10.1311 53.0223 10.1311 51.4161 9.60728C50.7306 9.37177 50.0955 9.00781 49.5441 8.53459C49.0371 8.1022 48.6299 7.5635 48.3508 6.95606C48.0716 6.34862 47.9273 5.68706 47.9279 5.01759V5ZM50.4568 5C50.455 5.37929 50.5323 5.75473 50.6835 6.102C50.8434 6.45042 51.073 6.76175 51.3579 7.01642C51.6764 7.29312 52.0431 7.50779 52.4393 7.64949C53.3833 7.96262 54.4021 7.96262 55.3461 7.64949C55.7423 7.50779 56.109 7.29312 56.4275 7.01642C56.847 6.63785 57.1371 6.13519 57.2561 5.58034C57.3752 5.02548 57.3171 4.44688 57.0902 3.92733C56.9341 3.57499 56.704 3.261 56.4158 3.00704C56.0974 2.73034 55.7307 2.51569 55.3345 2.37399C54.3904 2.06085 53.3717 2.06085 52.4276 2.37399C52.0314 2.51569 51.6648 2.73034 51.3463 3.00704C51.0599 3.2626 50.8301 3.57618 50.6719 3.92733C50.5286 4.2664 50.4554 4.63141 50.4568 5Z" fill="#273437"/>
<path d="M64.2294 9.84172V2.30362H67.4037C68.2017 2.29306 68.9785 2.56242 69.6013 3.06563C69.8401 3.26935 70.0124 3.54109 70.0954 3.84523C70.1987 4.33856 70.2494 4.84163 70.2466 5.34583V9.84758H72.636V4.78896C72.6487 4.15853 72.5563 3.53041 72.3627 2.93081C72.1935 2.36829 71.8947 1.8541 71.4907 1.43022C71.0575 1.00531 70.532 0.68819 69.9559 0.504089C69.2286 0.271429 68.4689 0.158603 67.706 0.16997H61.8284V9.84172H64.2294Z" fill="#273437"/>
<path d="M74.5661 5C74.5616 4.32812 74.7045 3.66356 74.9847 3.05394C75.2549 2.44651 75.6514 1.90475 76.1475 1.46542C76.6998 0.993452 77.3347 0.62966 78.0195 0.392743C79.6257 -0.131077 81.3548 -0.131077 82.9611 0.392743C83.6623 0.62431 84.3134 0.988343 84.8796 1.46542C85.3746 1.90573 85.7709 2.44725 86.0423 3.05394C86.3187 3.66488 86.4617 4.32852 86.4617 5C86.4617 5.67149 86.3187 6.33515 86.0423 6.94608C85.7709 7.55278 85.3746 8.09427 84.8796 8.53459C84.3255 9.00718 83.6886 9.37103 83.0018 9.60728C81.3955 10.1311 79.6664 10.1311 78.0601 9.60728C77.3753 9.37036 76.7405 9.00655 76.1881 8.53459C75.6835 8.10061 75.2782 7.56145 75.0002 6.95427C74.7221 6.3471 74.578 5.68635 74.5778 5.01759L74.5661 5ZM77.0893 5C77.0866 5.37999 77.166 5.75602 77.3218 6.102C77.4774 6.4514 77.7054 6.76319 77.9904 7.01642C78.3089 7.29312 78.6755 7.50779 79.0717 7.64949C80.0158 7.96262 81.0345 7.96262 81.9786 7.64949C82.3748 7.50779 82.7414 7.29312 83.0599 7.01642C83.3466 6.76341 83.5765 6.45167 83.7343 6.102C83.8875 5.75516 83.9667 5.3797 83.9667 5C83.9667 4.6203 83.8875 4.24486 83.7343 3.89803C83.5782 3.54569 83.3481 3.2317 83.0599 2.97774C82.7397 2.70041 82.371 2.48571 81.9728 2.34467C81.0287 2.03153 80.01 2.03153 79.0659 2.34467C78.6697 2.48637 78.3031 2.70104 77.9846 2.97774C77.6969 3.2411 77.4706 3.56537 77.3218 3.92733C77.17 4.26432 77.0908 4.62989 77.0893 5Z" fill="#273437"/>
<path d="M90.8735 9.84172V2.30363H94.0478C94.8441 2.29246 95.6193 2.56197 96.2395 3.06564C96.4803 3.26878 96.6546 3.54051 96.7395 3.84523C96.8408 4.33878 96.8895 4.84185 96.8849 5.34583V9.84759H99.2801V4.78897C99.291 4.15819 99.1967 3.53004 99.001 2.93081C98.8364 2.36626 98.537 1.85102 98.129 1.43023C97.699 1.00417 97.175 0.686812 96.6 0.504092C95.8707 0.271407 95.1091 0.158588 94.3443 0.169973H88.4667V9.84172H90.8735Z" fill="#273437"/>
<path d="M107.419 2.92498C107.25 2.36245 106.951 1.84827 106.547 1.42439C106.116 0.99701 105.59 0.6795 105.012 0.498238C104.285 0.265074 103.525 0.152236 102.762 0.164119H101.821C101.058 0.152751 100.298 0.265577 99.5708 0.498238C98.9947 0.682338 98.4691 0.999474 98.036 1.42439C97.632 1.84827 97.3332 2.36245 97.1639 2.92498C96.9703 3.52457 96.878 4.15268 96.8907 4.78311V9.84173H99.2801V5.1524C99.2682 4.64587 99.319 4.13982 99.4313 3.64595C99.6929 2.77842 100.867 2.28606 102.286 2.28606C103.704 2.28606 104.89 2.77842 105.158 3.64595C105.265 4.14055 105.314 4.64623 105.303 5.1524V9.84173H107.698V4.78311C107.709 4.15234 107.615 3.52421 107.419 2.92498Z" fill="#273437"/>
<path d="M117.599 0.169983V4.20868H114.529C114.08 4.21361 113.632 4.15641 113.198 4.03869C112.844 3.91856 112.522 3.71802 112.256 3.45252C112.02 3.2455 111.847 2.97518 111.756 2.67291C111.655 2.17737 111.606 1.6724 111.611 1.16647V0.193435H109.216V1.51231C109.206 2.14256 109.298 2.77018 109.489 3.37045C109.657 3.93178 109.956 4.44435 110.361 4.86518C110.792 5.29397 111.318 5.6134 111.896 5.79718C112.625 6.02987 113.387 6.14269 114.151 6.1313H117.64C117.638 6.44394 117.545 6.74905 117.371 7.00789C117.197 7.26673 116.95 7.4676 116.663 7.58499C116.18 7.72808 115.676 7.77975 115.175 7.73739H110.355V9.86518H115.512C116.138 9.87667 116.761 9.78154 117.355 9.58382C117.915 9.41781 118.426 9.11592 118.843 8.70457C119.226 8.30596 119.527 7.83404 119.727 7.31661C119.926 6.79917 120.021 6.24669 120.006 5.69168V0.199302L117.599 0.169983Z" fill="#273437"/>
<path d="M8.40657 6.1958H0V8.01292H8.40657V6.1958Z" fill="#273437"/>
<path d="M8.40657 1.96954H0V3.78666H8.40657V1.96954Z" fill="#273437"/>
</g>
<defs>
<clipPath id="clip0">
<rect width="120" height="10" fill="white"/>
</clipPath>
</defs>
</svg>
