<svg width="109" height="31" viewBox="0 0 109 31" fill="none" xmlns="http://www.w3.org/2000/svg">
<g clip-path="url(#clip0)">
<path d="M51.2731 2.71651C51.6635 2.32167 52.3008 2.32045 52.6927 2.7138L64.8177 14.8842C65.2065 15.2744 65.2065 15.9055 64.8178 16.2957L52.6927 28.4687C52.3008 28.8621 51.6635 28.8609 51.2731 28.466L48.723 25.8869C48.327 25.4863 48.3398 24.8379 48.7513 24.4533L54.8887 18.7157C54.9597 18.6493 55 18.5564 55 18.4592V18.4592C55 18.2654 54.8429 18.1082 54.649 18.1082H2C1.44772 18.1082 1 17.6605 1 17.1082V14.0744C1 13.5221 1.44772 13.0744 2 13.0744H54.649C54.8429 13.0744 55 12.9172 55 12.7234V12.7234C55 12.6262 54.9597 12.5333 54.8887 12.467L48.7513 6.72934C48.3398 6.3447 48.327 5.69629 48.723 5.29576L51.2731 2.71651Z" stroke="#273437" stroke-width="3"/>
</g>
<path d="M86.4098 14.8463L74.4295 2.72004C74.038 2.32379 73.3982 2.32379 73.0067 2.72004L70.6941 5.06082C70.3093 5.45034 70.3093 6.07693 70.6941 6.46645L78.9731 14.8463C79.3579 15.2358 79.3579 15.8624 78.9731 16.2519L70.6941 24.6317C70.3093 25.0212 70.3093 25.6478 70.6941 26.0373L73.0067 28.3781C73.3982 28.7744 74.038 28.7744 74.4295 28.3781L86.4098 16.2519C86.7946 15.8624 86.7946 15.2358 86.4098 14.8463Z" stroke="#273437" stroke-width="3"/>
<path d="M105.996 15.0972L94.0159 2.97102C93.6244 2.57477 92.9846 2.57477 92.5931 2.97102L90.2805 5.3118C89.8957 5.70132 89.8957 6.3279 90.2805 6.71742L98.5595 15.0972C98.9444 15.4868 98.9444 16.1133 98.5595 16.5029L90.2805 24.8827C89.8957 25.2722 89.8957 25.8988 90.2805 26.2883L92.5931 28.6291C92.9846 29.0253 93.6244 29.0253 94.0159 28.6291L105.996 16.5029C106.381 16.1133 106.381 15.4868 105.996 15.0972Z" stroke="#273437" stroke-width="3"/>
<defs>
<clipPath id="clip0">
<rect width="69" height="31" fill="white"/>
</clipPath>
</defs>
</svg>
